<?xml version="1.0"?>
<svg width="640" height="480" xmlns="http://www.w3.org/2000/svg" xmlns:svg="http://www.w3.org/2000/svg" xmlns:xlink="http://www.w3.org/1999/xlink">
 <!-- Created with SVG-edit - https://github.com/SVG-Edit/svgedit-->
 <defs>
  <symbol height="125" id="svg_1" version="1.1" width="246" xmlns="http://www.w3.org/2000/svg">
   <path d="m0,0c1.91,0 3.82,-0.01 5.73,-0.01c4,-0.01 8.01,-0.01 12.01,-0.01c4.04,0 8.08,0 12.13,-0.02c88.42,-0.29 88.42,-0.29 123.61,16.21c0.71,0.33 1.43,0.66 2.17,0.99c5.01,2.33 9.76,5.22 13.83,9.01c0,0.66 0,1.32 0,2c0.64,0.27 1.28,0.53 1.93,0.81c2.07,1.19 2.07,1.19 3.07,4.19c0.91,0.38 0.91,0.38 1.83,0.76c3.24,1.85 4.31,4.77 5.79,8.05c0.31,0.67 0.61,1.34 0.93,2.03c6.8,15.66 6.07,35.35 0.24,51.25c-1.13,2.71 -2.4,5.32 -3.79,7.91c-0.66,0 -1.32,0 -2,0c-0.33,1.32 -0.66,2.64 -1,4c-0.66,0 -1.32,0 -2,0c-0.33,0.99 -0.66,1.98 -1,3c-18.65,11.9 -40.77,9.09 -61.76,7.48c-35.48,-2.65 -69.12,-0.83 -104.34,4.65c-16.02,2.43 -35.53,5.11 -49.9,-4.13c-0.57,-0.37 -1.15,-0.73 -1.73,-1.1c-8.05,-5.87 -10.26,-15.54 -11.86,-24.91c-0.7,-5.09 -0.89,-10.17 -1.04,-15.3c-0.05,-1.73 -0.05,-1.73 -0.11,-3.49c-0.26,-9.01 -0.4,-18.01 -0.45,-27.01c-0.01,-1.21 -0.03,-2.42 -0.04,-3.66c-0.03,-25.63 -0.03,-25.63 6.23,-32.53c15.23,-11.46 33.37,-10.16 51.52,-10.17z" fill="#24B5BB" transform="translate(58.5234375,-0.16796875)"/>
   <path d="m0,0c0.33,0.66 0.66,1.32 1,2c-0.29,0.82 -0.58,1.65 -0.88,2.5c-2.69,8.37 -2.24,17.31 -2.1,26.02c0.01,1.17 0.03,2.34 0.05,3.55c0.03,2.47 0.07,4.94 0.12,7.41c0.06,3.74 0.1,7.49 0.14,11.23c-0.23,23.57 -0.23,23.57 9.67,44.29c11.61,9.8 27.76,8.08 42,7c11.44,-1.15 22.82,-2.9 34.19,-4.59c12.95,-1.91 25.66,-2.61 38.75,-2.6c0.78,0 1.57,0 2.38,0c10.52,0 20.94,0.35 31.43,1.19c9.75,0.78 19.44,1.24 29.21,1.3c2.03,0.01 4.06,0.04 6.08,0.07c11.69,-0.01 22.97,-1.27 31.96,-9.37c10.96,-11.7 10.55,-28.2 10.34,-43.18c-0.19,-5.16 -1.04,-9.83 -2.34,-14.82c0.66,0 1.32,0 2,0c7.53,14.72 6.49,34.6 1.56,50c-1.27,3.47 -2.81,6.75 -4.56,10c-0.66,0 -1.32,0 -2,0c-0.33,1.32 -0.66,2.64 -1,4c-0.66,0 -1.32,0 -2,0c-0.33,0.99 -0.66,1.98 -1,3c-18.65,11.9 -40.77,9.09 -61.76,7.48c-35.48,-2.65 -69.12,-0.83 -104.34,4.65c-16.02,2.44 -35.53,5.11 -49.9,-4.13c-0.57,-0.36 -1.14,-0.73 -1.73,-1.1c-8.05,-5.87 -10.26,-15.54 -11.86,-24.91c-0.7,-5.09 -0.89,-10.17 -1.03,-15.3c-0.06,-1.73 -0.06,-1.73 -0.12,-3.49c-0.25,-9 -0.39,-18.01 -0.45,-27.01c-0.01,-1.21 -0.02,-2.42 -0.04,-3.66c-0.01,-10.46 0.02,-21.22 5.23,-30.53c0.33,-0.33 0.66,-0.66 1,-1z" fill="#090A0A" transform="translate(7,11)"/>
   <path d="m0,0c4.96,4.41 8.34,8.92 9.42,15.61c0.4,7.89 -1.8,14.31 -7.06,20.24c-4.87,4.46 -10.09,7.3 -16.8,7.34c-1.76,-0.1 -1.76,-0.1 -3.56,-0.19c0.49,-0.47 0.99,-0.95 1.5,-1.44c2.15,-3.67 2.28,-7.4 1.5,-11.56c-2.02,-2.62 -3.21,-3.08 -6.44,-4.25c-4.64,-2.28 -5.52,-4.08 -7.56,-8.75c0.33,-0.66 0.66,-1.32 1,-2c0.76,0.35 1.52,0.71 2.31,1.07c2.84,1.32 5.68,2.63 8.52,3.95c1.23,0.56 2.46,1.13 3.68,1.7c1.77,0.82 3.54,1.64 5.31,2.46c1.07,0.49 2.13,0.98 3.23,1.49c2.62,1.18 5.27,2.28 7.95,3.33c0.94,-2.75 1.3,-4.15 1,-7c-1.65,-3.24 -3.52,-6.21 -5.53,-9.23c-1.47,-2.77 -1.47,-2.77 -1.26,-4.93c0.26,-0.61 0.52,-1.21 0.79,-1.84c0.53,-1.61 0.53,-1.61 1.06,-3.25c0.31,-0.91 0.62,-1.81 0.94,-2.75z" fill="#F4FBFB" transform="translate(64,34)"/>
   <path d="m0,0c-0.33,0.99 -0.66,1.98 -1,3c-0.31,5.63 -0.31,5.63 1,11c2.16,0.85 2.16,0.85 4.75,1.25c4.2,1.08 6.09,2.12 8.44,5.81c1.17,2.1 1.17,2.1 1.81,3.94c-0.33,0.66 -0.66,1.32 -1,2c-0.76,-0.35 -1.52,-0.71 -2.31,-1.07c-2.84,-1.32 -5.68,-2.63 -8.52,-3.95c-1.23,-0.56 -2.46,-1.13 -3.68,-1.7c-1.77,-0.82 -3.54,-1.64 -5.31,-2.46c-1.6,-0.74 -1.6,-0.74 -3.23,-1.49c-2.62,-1.18 -5.27,-2.28 -7.95,-3.33c-0.94,2.75 -1.3,4.15 -1,7c1.69,3.23 3.58,6.21 5.63,9.23c0.45,0.91 0.9,1.83 1.37,2.77c-0.75,2.16 -0.75,2.16 -2,4c-0.38,1.99 -0.73,3.99 -1,6c-4.81,-4.29 -7.47,-8.2 -8.36,-14.54c-0.41,-7.95 1.68,-14.32 7,-20.31c4.35,-3.98 9.33,-7.15 15.36,-7.15z" fill="#F4FBFB" transform="translate(46,28)"/>
   <path d="m0,0c1.65,0 3.3,0 5,0c0.72,1.92 1.43,3.84 2.15,5.76c0.92,2.43 1.89,4.83 2.85,7.24c1.32,-4.29 2.64,-8.58 4,-13c1.98,0 3.96,0 6,0c0.66,8.91 1.32,17.82 2,27c-1.98,0 -3.96,0 -6,0c0,-4.29 0,-8.58 0,-13c-0.66,0 -1.32,0 -2,0c-0.12,1.22 -0.25,2.43 -0.38,3.69c-0.41,3.37 -1.17,6.21 -2.62,9.31c-0.99,0 -1.98,0 -3,0c-2.25,-4.82 -3.03,-9.8 -4,-15c-0.33,4.95 -0.66,9.9 -1,15c-1.65,0 -3.3,0 -5,0c0.14,-3.38 0.29,-6.75 0.44,-10.12c0.04,-0.96 0.08,-1.91 0.12,-2.89c0.21,-4.74 0.51,-9.33 1.44,-13.99z" fill="#F2FAFB" transform="translate(103,39)"/>
   <path d="m0,0c2.79,2.25 3.86,3.58 5,7c0.4,4.95 0.49,9.56 -2,14c-3.11,1.55 -6.66,1.89 -10,1c-3.6,-4.49 -3.56,-8.63 -3.42,-14.17c0.42,-2.83 0.42,-2.83 2.61,-6.08c3.07,-1.91 4.3,-2.56 7.81,-1.75z" fill="#F5FBFC" transform="translate(210,44)"/>
   <path d="m0,0c1.7,1.3 1.7,1.3 3,3c0.24,2.96 0.33,5.68 0.25,8.62c-0.01,0.79 -0.01,1.58 -0.02,2.4c-0.08,5.83 -0.08,5.83 -1.23,6.98c-1.79,0.15 -3.58,0.22 -5.38,0.25c-0.97,0.03 -1.95,0.05 -2.96,0.08c-2.66,-0.33 -2.66,-0.33 -4.48,-1.66c-1.86,-2.64 -1.63,-4.54 -1.18,-7.67c2.2,-3.13 3.5,-3.88 7.25,-4.75c0.91,-0.08 1.81,-0.16 2.75,-0.25c-0.33,-0.66 -0.66,-1.32 -1,-2c-2.32,-0.41 -4.66,-0.74 -7,-1c0,-1.32 0,-2.64 0,-4c3.77,-1.26 6.14,-0.83 10,0z" fill="#F3FBFB" transform="translate(174,45)"/>
   <path d="m0,0c3.17,0.72 4.19,1.78 6.04,4.46c0.48,3.1 0.37,6.12 0.25,9.25c-0.02,0.84 -0.04,1.68 -0.06,2.55c-0.05,2.07 -0.12,4.13 -0.19,6.2c-1.65,0 -3.3,0 -5,0c-0.33,-5.61 -0.66,-11.22 -1,-17c-1.32,-0.33 -2.64,-0.66 -4,-1c0,5.94 0,11.88 0,18c-1.65,0 -3.3,0 -5,0c-0.09,-3.29 -0.15,-6.58 -0.19,-9.87c-0.03,-0.94 -0.05,-1.88 -0.08,-2.84c-0.01,-0.9 -0.02,-1.8 -0.03,-2.72c-0.01,-0.83 -0.03,-1.65 -0.05,-2.51c0.12,-0.68 0.23,-1.36 0.35,-2.06c3.21,-2.14 5.17,-2.3 8.96,-2.46z" fill="#FAFDFD" transform="translate(189.96484375,43.5390625)"/>
   <path d="m0,0c3.17,0.72 4.19,1.78 6.04,4.46c0.48,3.1 0.37,6.12 0.25,9.25c-0.02,0.84 -0.04,1.68 -0.06,2.55c-0.05,2.07 -0.12,4.13 -0.19,6.2c-1.65,0 -3.3,0 -5,0c-0.33,-5.61 -0.66,-11.22 -1,-17c-1.32,-0.33 -2.64,-0.66 -4,-1c0,5.94 0,11.88 0,18c-1.65,0 -3.3,0 -5,0c-0.09,-3.29 -0.15,-6.58 -0.19,-9.87c-0.03,-0.94 -0.05,-1.88 -0.08,-2.84c-0.01,-0.9 -0.02,-1.8 -0.03,-2.72c-0.01,-0.83 -0.03,-1.65 -0.05,-2.51c0.12,-0.68 0.23,-1.36 0.35,-2.06c3.21,-2.14 5.17,-2.3 8.96,-2.46z" fill="#FAFDFD" transform="translate(152.96484375,43.5390625)"/>
   <path d="m0,0c0.33,1.32 0.66,2.64 1,4c-2,1 -2,1 -6,1c0.16,2.69 0.48,4.47 2.4,6.42c0.55,0.48 1.1,0.96 1.66,1.46c2.65,2.46 2.91,2.92 3.5,6.74c-0.59,3.55 -1.07,4.87 -3.56,7.38c-2.48,0.39 -2.48,0.39 -5.19,0.25c-0.9,-0.04 -1.8,-0.07 -2.73,-0.11c-0.69,-0.05 -1.37,-0.09 -2.08,-0.14c-0.33,-0.66 -0.66,-1.32 -1,-2c0.5,-1.48 0.5,-1.48 1,-3c1.98,0 3.96,0 6,0c-0.24,-3.88 -1.48,-5.7 -4.06,-8.44c-2.25,-2.49 -2.9,-3.35 -3.56,-6.75c1.63,-7.34 6.14,-7.24 12.62,-6.81z" fill="#F3FBFB" transform="translate(139,39)"/>
   <path d="m0,0c0.79,0.07 1.58,0.14 2.39,0.21c0.8,0.06 1.6,0.11 2.42,0.17c0.61,0.06 1.21,0.13 1.83,0.21c0.33,0.99 0.66,1.98 1,3c-2.36,2.36 -3.78,2.49 -7,3c-0.92,2.77 -1.16,4.56 -1.19,7.43c-0.01,0.77 -0.03,1.53 -0.04,2.31c0.25,2.49 0.99,4.1 2.23,6.26c1.65,0 3.3,0 5,0c0.56,1.93 0.56,1.93 1,4c-1.57,1.57 -3.14,1.32 -5.31,1.43c-0.78,0.06 -1.56,0.12 -2.37,0.19c-2.32,-0.62 -2.32,-0.62 -4.58,-3.18c-2,-3.96 -2.28,-6.53 -2.24,-10.94c-0.01,-1.91 -0.01,-1.91 -0.03,-3.85c0.67,-4.63 1.93,-9.01 6.89,-10.24z" fill="#F5FBFC" transform="translate(91.359375,38.4140625)"/>
   <path d="m0,0c2.06,0.44 2.06,0.44 4,1c0.03,1.62 0.05,3.25 0.06,4.88c0.01,0.9 0.03,1.8 0.04,2.74c-0.1,2.38 -0.1,2.38 -1.1,4.38c-1.32,-0.33 -2.64,-0.66 -4,-1c-0.03,-1.81 -0.05,-3.62 -0.06,-5.44c-0.01,-1.01 -0.03,-2.02 -0.04,-3.06c0.1,-2.5 0.1,-2.5 1.1,-3.5z" fill="#31BAC0" transform="translate(206,49)"/>
   <path d="m0,0c0,2.64 0,5.28 0,8c-1.32,-0.33 -2.64,-0.66 -4,-1c-0.69,-1.81 -0.69,-1.81 -1,-4c1.62,-2.15 2.25,-3 5,-3z" fill="#37BCC2" transform="translate(172,55)"/>
   <path d="m0,0c0.66,0 1.32,0 2,0c0.99,2.64 1.98,5.28 3,8c-0.99,0 -1.98,0 -3,0c-1.26,-2.91 -2,-4.8 -2,-8z" fill="#2B3839" transform="translate(239,43)"/>
  </symbol>
 </defs>
 <g class="layer">
  <title>Layer 1</title>
  <use id="svg_3" transform="scale(0.650407 0.650407)" xlink:href="#svg_1"/>
 </g>
</svg>