<?xml version="1.0" encoding="UTF-8"?>
<!DOCTYPE svg PUBLIC "-//W3C//DTD SVG 1.1//EN" "http://www.w3.org/Graphics/SVG/1.1/DTD/svg11.dtd">
<svg xmlns="http://www.w3.org/2000/svg" version="1.1" width="246px" height="125px" style="shape-rendering:geometricPrecision; text-rendering:geometricPrecision; image-rendering:optimizeQuality; fill-rule:evenodd; clip-rule:evenodd" xmlns:xlink="http://www.w3.org/1999/xlink">
<g><path style="opacity:0.997" fill="#26b6bb" d="M 38.5,-0.5 C 68.1667,-0.5 97.8333,-0.5 127.5,-0.5C 149.691,0.359769 171.691,3.52644 193.5,9C 210.606,12.7052 224.606,21.2052 235.5,34.5C 235.584,37.6817 236.917,40.015 239.5,41.5C 239.5,41.8333 239.5,42.1667 239.5,42.5C 239.062,42.4346 238.728,42.6012 238.5,43C 240.935,49.7427 241.935,56.7427 241.5,64C 243.025,97.6426 227.025,113.143 193.5,110.5C 178.48,110.046 163.48,109.213 148.5,108C 135.833,107.333 123.167,107.333 110.5,108C 89.468,110.421 68.468,113.087 47.5,116C 34.4555,117.961 22.9555,114.794 13,106.5C 9.57835,101.655 7.24502,96.3221 6,90.5C 4.83374,72.192 4.0004,53.8587 3.5,35.5C 3.86781,29.8218 4.36781,24.1552 5,18.5C 5.83581,14.8091 7.33581,11.4757 9.5,8.5C 12.1019,6.19039 15.1019,4.35706 18.5,3C 25.2343,1.38449 31.9009,0.217828 38.5,-0.5 Z"/></g>
<g><path style="opacity:1" fill="#f8fcfd" d="M 39.5,28.5 C 41.288,28.2148 42.9547,28.5481 44.5,29.5C 41.6598,39.1722 45.3265,44.3388 55.5,45C 57.6063,48.0386 59.1063,51.2052 60,54.5C 50.1357,49.5682 40.1357,44.9015 30,40.5C 28.2144,41.8966 27.0477,43.7299 26.5,46C 29.0326,50.8978 31.6993,55.7311 34.5,60.5C 32.3489,62.7723 30.8489,65.439 30,68.5C 19.066,51.8044 22.2326,38.4711 39.5,28.5 Z"/></g>
<g><path style="opacity:1" fill="#f8fcfd" d="M 63.5,33.5 C 74.1342,43.714 75.3009,55.0473 67,67.5C 61.5309,73.6555 54.6976,76.4889 46.5,76C 52.9138,66.8067 50.5804,60.8067 39.5,58C 38.0836,55.1651 36.417,52.4985 34.5,50C 44.8404,53.4097 55.0071,57.5763 65,62.5C 66.7856,61.1034 67.9523,59.2701 68.5,57C 66.0521,51.7192 63.3855,46.5526 60.5,41.5C 62.6227,39.2546 63.6227,36.5879 63.5,33.5 Z"/></g>
<g><path style="opacity:0.007" fill="#2f2f2f" d="M 235.5,34.5 C 237.195,36.5351 238.528,38.8684 239.5,41.5C 236.917,40.015 235.584,37.6817 235.5,34.5 Z"/></g>
<g><path style="opacity:1" fill="#fafdfd" d="M 89.5,38.5 C 92.1667,38.5 94.8333,38.5 97.5,38.5C 97.6602,40.1992 97.4935,41.8659 97,43.5C 93.0567,41.7489 90.7234,43.0823 90,47.5C 88.993,52.1113 89.6597,56.4446 92,60.5C 93.6667,61.8333 95.3333,61.8333 97,60.5C 99.3749,64.316 98.2083,65.9827 93.5,65.5C 88.43,65.8818 85.5967,63.5484 85,58.5C 84.3333,53.8333 84.3333,49.1667 85,44.5C 86.2775,42.2528 87.7775,40.2528 89.5,38.5 Z"/></g>
<g><path style="opacity:1" fill="#f5fbfc" d="M 102.5,38.5 C 104.467,38.2606 106.301,38.5939 108,39.5C 109.128,44.552 110.462,49.552 112,54.5C 113.644,49.6021 115.144,44.6021 116.5,39.5C 118.396,38.5344 120.396,38.2011 122.5,38.5C 122.926,47.5199 123.593,56.5199 124.5,65.5C 122.5,65.5 120.5,65.5 118.5,65.5C 119.273,43.2325 117.606,43.2325 113.5,65.5C 112.5,65.5 111.5,65.5 110.5,65.5C 106.594,44.5655 104.928,44.5655 105.5,65.5C 103.833,65.5 102.167,65.5 100.5,65.5C 100.671,56.4512 101.338,47.4512 102.5,38.5 Z"/></g>
<g><path style="opacity:1" fill="#f7fcfc" d="M 130.5,38.5 C 133.722,38.1081 136.722,38.6081 139.5,40C 138.809,41.0674 138.309,42.2341 138,43.5C 135.214,41.8158 133.38,42.4825 132.5,45.5C 134.774,48.9495 137.274,52.2828 140,55.5C 140.628,64.4688 136.462,67.6355 127.5,65C 126.397,63.3196 126.73,61.8196 128.5,60.5C 131.481,62.2632 133.481,61.5966 134.5,58.5C 132.226,55.0505 129.726,51.7172 127,48.5C 125.755,44.2353 126.922,40.902 130.5,38.5 Z"/></g>
<g><path style="opacity:0.129" fill="#0c0d0d" d="M 9.5,8.5 C 7.33581,11.4757 5.83581,14.8091 5,18.5C 4.36781,24.1552 3.86781,29.8218 3.5,35.5C 4.0004,53.8587 4.83374,72.192 6,90.5C 7.24502,96.3221 9.57835,101.655 13,106.5C 22.9555,114.794 34.4555,117.961 47.5,116C 68.468,113.087 89.468,110.421 110.5,108C 123.167,107.333 135.833,107.333 148.5,108C 163.48,109.213 178.48,110.046 193.5,110.5C 227.025,113.143 243.025,97.6426 241.5,64C 241.935,56.7427 240.935,49.7427 238.5,43C 238.728,42.6012 239.062,42.4346 239.5,42.5C 241.163,44.4927 242.33,46.8261 243,49.5C 243.76,53.9884 244.594,58.3217 245.5,62.5C 245.5,64.8333 245.5,67.1667 245.5,69.5C 244.167,69.8333 244.167,70.1667 245.5,70.5C 245.5,70.8333 245.5,71.1667 245.5,71.5C 244.167,71.8333 244.167,72.1667 245.5,72.5C 245.5,72.8333 245.5,73.1667 245.5,73.5C 244.936,79.7067 243.769,86.04 242,92.5C 236.814,106.64 226.481,114.64 211,116.5C 203.651,117.743 196.651,118.409 190,118.5C 158.211,114.152 126.044,113.652 93.5,117C 76.3992,119.729 59.2325,121.895 42,123.5C 29.1178,124.34 18.1178,120.34 9,111.5C 5.0655,104.36 2.73217,96.6935 2,88.5C 1.81291,81.9191 1.31291,75.4191 0.5,69C 0.94429,56.7456 1.11096,44.2456 1,31.5C 0.826149,23.5247 2.82615,16.1913 7,9.5C 7.67076,8.74756 8.5041,8.41423 9.5,8.5 Z"/></g>
<g><path style="opacity:1" fill="#fafdfd" d="M 203.5,44.5 C 208.487,43.3491 211.987,45.0158 214,49.5C 215.409,55.3539 214.243,60.5206 210.5,65C 205.525,66.6447 202.025,65.1447 200,60.5C 199.333,56.5 199.333,52.5 200,48.5C 201.032,46.9733 202.199,45.64 203.5,44.5 Z"/></g>
<g><path style="opacity:1" fill="#39bbc0" d="M 205.5,47.5 C 207.017,47.5106 208.184,48.1772 209,49.5C 209.667,52.8333 209.667,56.1667 209,59.5C 208.047,61.5922 206.714,61.9255 205,60.5C 204.294,56.1132 204.46,51.7799 205.5,47.5 Z"/></g>
<g><path style="opacity:1" fill="#fbfdfd" d="M 183.5,43.5 C 187.634,42.9429 191.301,43.9429 194.5,46.5C 195.46,52.7734 195.793,59.1067 195.5,65.5C 193.833,65.5 192.167,65.5 190.5,65.5C 190.666,59.8236 190.499,54.1569 190,48.5C 188.644,47.6198 187.144,47.2865 185.5,47.5C 185.5,53.5 185.5,59.5 185.5,65.5C 183.833,65.5 182.167,65.5 180.5,65.5C 180.334,58.825 180.5,52.1583 181,45.5C 181.995,44.9341 182.828,44.2674 183.5,43.5 Z"/></g>
<g><path style="opacity:1" fill="#f5fbfb" d="M 166.5,43.5 C 170.426,43.0466 173.592,44.3799 176,47.5C 176.667,53.1667 176.667,58.8333 176,64.5C 172.256,65.626 168.423,65.7927 164.5,65C 160.554,61.1275 160.554,57.2942 164.5,53.5C 173.801,50.4175 173.468,48.7508 163.5,48.5C 163.5,47.1667 163.5,45.8333 163.5,44.5C 164.791,44.7373 165.791,44.404 166.5,43.5 Z"/></g>
<g><path style="opacity:1" fill="#3bbbc1" d="M 169.5,54.5 C 171.369,56.6353 172.036,59.3019 171.5,62.5C 165.718,61.1522 165.052,58.4855 169.5,54.5 Z"/></g>
<g><path style="opacity:1" fill="#fefefe" d="M 144.5,44.5 C 148.182,44.3347 151.848,44.5014 155.5,45C 156.308,45.3076 156.975,45.8076 157.5,46.5C 158.46,52.7734 158.793,59.1067 158.5,65.5C 156.833,65.5 155.167,65.5 153.5,65.5C 153.666,59.8236 153.499,54.1569 153,48.5C 151.644,47.6198 150.144,47.2865 148.5,47.5C 148.5,53.5 148.5,59.5 148.5,65.5C 146.833,65.5 145.167,65.5 143.5,65.5C 143.205,58.4122 143.538,51.4122 144.5,44.5 Z"/></g>
</svg>
