<?xml version="1.0" encoding="UTF-8"?>
<!-- Generator: visioncortex VTracer 0.6.3 -->
<svg version="1.1" xmlns="http://www.w3.org/2000/svg" width="246" height="125">
<path d="M0 0 C1.91 -0 3.82 -0.01 5.73 -0.01 C9.73 -0.02 13.74 -0.02 17.74 -0.02 C21.78 -0.02 25.82 -0.02 29.87 -0.04 C118.29 -0.33 118.29 -0.33 153.48 16.17 C154.19 16.5 154.91 16.83 155.65 17.16 C160.66 19.49 165.41 22.38 169.48 26.17 C169.48 26.83 169.48 27.49 169.48 28.17 C170.12 28.44 170.76 28.7 171.41 28.98 C173.48 30.17 173.48 30.17 174.48 33.17 C175.39 33.55 175.39 33.55 176.31 33.93 C179.55 35.78 180.62 38.7 182.1 41.98 C182.41 42.65 182.71 43.32 183.03 44.01 C189.83 59.67 189.1 79.36 183.27 95.26 C182.14 97.97 180.87 100.58 179.48 103.17 C178.82 103.17 178.16 103.17 177.48 103.17 C177.15 104.49 176.82 105.81 176.48 107.17 C175.82 107.17 175.16 107.17 174.48 107.17 C174.15 108.16 173.82 109.15 173.48 110.17 C154.83 122.07 132.71 119.26 111.72 117.65 C76.24 115 42.6 116.82 7.38 122.3 C-8.64 124.73 -28.15 127.41 -42.52 118.17 C-43.09 117.8 -43.67 117.44 -44.25 117.07 C-52.3 111.2 -54.51 101.53 -56.11 92.16 C-56.81 87.07 -57 81.99 -57.15 76.86 C-57.2 75.13 -57.2 75.13 -57.26 73.37 C-57.52 64.36 -57.66 55.36 -57.71 46.36 C-57.72 45.15 -57.74 43.94 -57.75 42.7 C-57.78 17.07 -57.78 17.07 -51.52 10.17 C-36.29 -1.29 -18.15 0.01 0 0 Z " fill="#24B5BB" transform="translate(58.5234375,-0.16796875)"/>
<path d="M0 0 C0.33 0.66 0.66 1.32 1 2 C0.71 2.82 0.42 3.65 0.12 4.5 C-2.57 12.87 -2.12 21.81 -1.98 30.52 C-1.97 31.69 -1.95 32.86 -1.93 34.07 C-1.9 36.54 -1.86 39.01 -1.81 41.48 C-1.75 45.22 -1.71 48.97 -1.67 52.71 C-1.9 76.28 -1.9 76.28 8 97 C19.61 106.8 35.76 105.08 50 104 C61.44 102.85 72.82 101.1 84.19 99.41 C97.14 97.5 109.85 96.8 122.94 96.81 C123.72 96.81 124.51 96.81 125.32 96.81 C135.84 96.81 146.26 97.16 156.75 98 C166.5 98.78 176.19 99.24 185.96 99.3 C187.99 99.31 190.02 99.34 192.04 99.37 C203.73 99.36 215.01 98.1 224 90 C234.96 78.3 234.55 61.8 234.34 46.82 C234.15 41.66 233.3 36.99 232 32 C232.66 32 233.32 32 234 32 C241.53 46.72 240.49 66.6 235.56 82 C234.29 85.47 232.75 88.75 231 92 C230.34 92 229.68 92 229 92 C228.67 93.32 228.34 94.64 228 96 C227.34 96 226.68 96 226 96 C225.67 96.99 225.34 97.98 225 99 C206.35 110.9 184.23 108.09 163.24 106.48 C127.76 103.83 94.12 105.65 58.9 111.13 C42.88 113.57 23.37 116.24 9 107 C8.43 106.64 7.86 106.27 7.27 105.9 C-0.78 100.03 -2.99 90.36 -4.59 80.99 C-5.29 75.9 -5.48 70.82 -5.62 65.69 C-5.68 63.96 -5.68 63.96 -5.74 62.2 C-5.99 53.2 -6.13 44.19 -6.19 35.19 C-6.2 33.98 -6.21 32.77 -6.23 31.53 C-6.24 21.07 -6.21 10.31 -1 1 C-0.67 0.67 -0.34 0.34 0 0 Z " fill="#090A0A" transform="translate(7,11)"/>
<path d="M0 0 C4.96 4.41 8.34 8.92 9.42 15.61 C9.82 23.5 7.62 29.92 2.36 35.85 C-2.51 40.31 -7.73 43.15 -14.44 43.19 C-16.2 43.09 -16.2 43.09 -18 43 C-17.51 42.53 -17.01 42.05 -16.5 41.56 C-14.35 37.89 -14.22 34.16 -15 30 C-17.02 27.38 -18.21 26.92 -21.44 25.75 C-26.08 23.47 -26.96 21.67 -29 17 C-28.67 16.34 -28.34 15.68 -28 15 C-27.24 15.35 -26.48 15.71 -25.69 16.07 C-22.85 17.39 -20.01 18.7 -17.17 20.02 C-15.94 20.58 -14.71 21.15 -13.49 21.72 C-11.72 22.54 -9.95 23.36 -8.18 24.18 C-7.11 24.67 -6.05 25.16 -4.95 25.67 C-2.33 26.85 0.32 27.95 3 29 C3.94 26.25 4.3 24.85 4 22 C2.35 18.76 0.48 15.79 -1.53 12.77 C-3 10 -3 10 -2.79 7.84 C-2.53 7.23 -2.27 6.63 -2 6 C-1.47 4.39 -1.47 4.39 -0.94 2.75 C-0.63 1.84 -0.32 0.94 0 0 Z " fill="#F4FBFB" transform="translate(64,34)"/>
<path d="M0 0 C-0.33 0.99 -0.66 1.98 -1 3 C-1.31 8.63 -1.31 8.63 0 14 C2.16 14.85 2.16 14.85 4.75 15.25 C8.95 16.33 10.84 17.37 13.19 21.06 C14.36 23.16 14.36 23.16 15 25 C14.67 25.66 14.34 26.32 14 27 C13.24 26.65 12.48 26.29 11.69 25.93 C8.85 24.61 6.01 23.3 3.17 21.98 C1.94 21.42 0.71 20.85 -0.51 20.28 C-2.28 19.46 -4.05 18.64 -5.82 17.82 C-7.42 17.08 -7.42 17.08 -9.05 16.33 C-11.67 15.15 -14.32 14.05 -17 13 C-17.94 15.75 -18.3 17.15 -18 20 C-16.31 23.23 -14.42 26.21 -12.37 29.23 C-11.92 30.14 -11.47 31.06 -11 32 C-11.75 34.16 -11.75 34.16 -13 36 C-13.38 37.99 -13.73 39.99 -14 42 C-18.81 37.71 -21.47 33.8 -22.36 27.46 C-22.77 19.51 -20.68 13.14 -15.36 7.15 C-11.01 3.17 -6.03 0 0 0 Z " fill="#F4FBFB" transform="translate(46,28)"/>
<path d="M0 0 C1.65 0 3.3 0 5 0 C5.72 1.92 6.43 3.84 7.15 5.76 C8.07 8.19 9.04 10.59 10 13 C11.32 8.71 12.64 4.42 14 0 C15.98 0 17.96 0 20 0 C20.66 8.91 21.32 17.82 22 27 C20.02 27 18.04 27 16 27 C16 22.71 16 18.42 16 14 C15.34 14 14.68 14 14 14 C13.88 15.22 13.75 16.43 13.62 17.69 C13.21 21.06 12.45 23.9 11 27 C10.01 27 9.02 27 8 27 C5.75 22.18 4.97 17.2 4 12 C3.67 16.95 3.34 21.9 3 27 C1.35 27 -0.3 27 -2 27 C-1.86 23.62 -1.71 20.25 -1.56 16.88 C-1.52 15.92 -1.48 14.97 -1.44 13.99 C-1.23 9.25 -0.93 4.66 0 0 Z " fill="#F2FAFB" transform="translate(103,39)"/>
<path d="M0 0 C2.79 2.25 3.86 3.58 5 7 C5.4 11.95 5.49 16.56 3 21 C-0.11 22.55 -3.66 22.89 -7 22 C-10.6 17.51 -10.56 13.37 -10.42 7.83 C-10 5 -10 5 -7.81 1.75 C-4.74 -0.16 -3.51 -0.81 0 0 Z " fill="#F5FBFC" transform="translate(210,44)"/>
<path d="M0 0 C1.7 1.3 1.7 1.3 3 3 C3.24 5.96 3.33 8.68 3.25 11.62 C3.24 12.41 3.24 13.2 3.23 14.02 C3.15 19.85 3.15 19.85 2 21 C0.21 21.15 -1.58 21.22 -3.38 21.25 C-4.35 21.28 -5.33 21.3 -6.34 21.33 C-9 21 -9 21 -10.82 19.67 C-12.68 17.03 -12.45 15.13 -12 12 C-9.8 8.87 -8.5 8.12 -4.75 7.25 C-3.84 7.17 -2.94 7.09 -2 7 C-2.33 6.34 -2.66 5.68 -3 5 C-5.32 4.59 -7.66 4.26 -10 4 C-10 2.68 -10 1.36 -10 0 C-6.23 -1.26 -3.86 -0.83 0 0 Z " fill="#F3FBFB" transform="translate(174,45)"/>
<path d="M0 0 C3.17 0.72 4.19 1.78 6.04 4.46 C6.52 7.56 6.41 10.58 6.29 13.71 C6.27 14.55 6.25 15.39 6.23 16.26 C6.18 18.33 6.11 20.39 6.04 22.46 C4.39 22.46 2.74 22.46 1.04 22.46 C0.71 16.85 0.38 11.24 0.04 5.46 C-1.28 5.13 -2.6 4.8 -3.96 4.46 C-3.96 10.4 -3.96 16.34 -3.96 22.46 C-5.61 22.46 -7.26 22.46 -8.96 22.46 C-9.05 19.17 -9.11 15.88 -9.15 12.59 C-9.18 11.65 -9.2 10.71 -9.23 9.75 C-9.24 8.85 -9.25 7.95 -9.26 7.03 C-9.27 6.2 -9.29 5.38 -9.31 4.52 C-9.19 3.84 -9.08 3.16 -8.96 2.46 C-5.75 0.32 -3.79 0.16 0 0 Z " fill="#FAFDFD" transform="translate(189.96484375,43.5390625)"/>
<path d="M0 0 C3.17 0.72 4.19 1.78 6.04 4.46 C6.52 7.56 6.41 10.58 6.29 13.71 C6.27 14.55 6.25 15.39 6.23 16.26 C6.18 18.33 6.11 20.39 6.04 22.46 C4.39 22.46 2.74 22.46 1.04 22.46 C0.71 16.85 0.38 11.24 0.04 5.46 C-1.28 5.13 -2.6 4.8 -3.96 4.46 C-3.96 10.4 -3.96 16.34 -3.96 22.46 C-5.61 22.46 -7.26 22.46 -8.96 22.46 C-9.05 19.17 -9.11 15.88 -9.15 12.59 C-9.18 11.65 -9.2 10.71 -9.23 9.75 C-9.24 8.85 -9.25 7.95 -9.26 7.03 C-9.27 6.2 -9.29 5.38 -9.31 4.52 C-9.19 3.84 -9.08 3.16 -8.96 2.46 C-5.75 0.32 -3.79 0.16 0 0 Z " fill="#FAFDFD" transform="translate(152.96484375,43.5390625)"/>
<path d="M0 0 C0.33 1.32 0.66 2.64 1 4 C-1 5 -1 5 -5 5 C-4.84 7.69 -4.52 9.47 -2.6 11.42 C-2.05 11.9 -1.5 12.38 -0.94 12.88 C1.71 15.34 1.97 15.8 2.56 19.62 C1.97 23.17 1.49 24.49 -1 27 C-3.48 27.39 -3.48 27.39 -6.19 27.25 C-7.09 27.21 -7.99 27.18 -8.92 27.14 C-9.61 27.09 -10.29 27.05 -11 27 C-11.33 26.34 -11.66 25.68 -12 25 C-11.5 23.52 -11.5 23.52 -11 22 C-9.02 22 -7.04 22 -5 22 C-5.24 18.12 -6.48 16.3 -9.06 13.56 C-11.31 11.07 -11.96 10.21 -12.62 6.81 C-10.99 -0.53 -6.48 -0.43 0 0 Z " fill="#F3FBFB" transform="translate(139,39)"/>
<path d="M0 0 C0.79 0.07 1.58 0.14 2.39 0.21 C3.19 0.27 3.99 0.32 4.81 0.38 C5.42 0.44 6.02 0.51 6.64 0.59 C6.97 1.58 7.3 2.57 7.64 3.59 C5.28 5.95 3.86 6.08 0.64 6.59 C-0.28 9.36 -0.52 11.15 -0.55 14.02 C-0.56 14.79 -0.58 15.55 -0.59 16.33 C-0.34 18.82 0.4 20.43 1.64 22.59 C3.29 22.59 4.94 22.59 6.64 22.59 C7.2 24.52 7.2 24.52 7.64 26.59 C6.07 28.16 4.5 27.91 2.33 28.02 C1.55 28.08 0.77 28.14 -0.04 28.21 C-2.36 27.59 -2.36 27.59 -4.62 25.03 C-6.62 21.07 -6.9 18.5 -6.86 14.09 C-6.87 12.18 -6.87 12.18 -6.89 10.24 C-6.22 5.61 -4.96 1.23 0 0 Z " fill="#F5FBFC" transform="translate(91.359375,38.4140625)"/>
<path d="M0 0 C2.06 0.44 2.06 0.44 4 1 C4.03 2.62 4.05 4.25 4.06 5.88 C4.07 6.78 4.09 7.68 4.1 8.62 C4 11 4 11 3 13 C1.68 12.67 0.36 12.34 -1 12 C-1.03 10.19 -1.05 8.38 -1.06 6.56 C-1.07 5.55 -1.09 4.54 -1.1 3.5 C-1 1 -1 1 0 0 Z " fill="#31BAC0" transform="translate(206,49)"/>
<path d="M0 0 C0 2.64 0 5.28 0 8 C-1.32 7.67 -2.64 7.34 -4 7 C-4.69 5.19 -4.69 5.19 -5 3 C-3.38 0.85 -2.75 0 0 0 Z " fill="#37BCC2" transform="translate(172,55)"/>
<path d="M0 0 C0.66 0 1.32 0 2 0 C2.99 2.64 3.98 5.28 5 8 C4.01 8 3.02 8 2 8 C0.74 5.09 0 3.2 0 0 Z " fill="#2B3839" transform="translate(239,43)"/>
</svg>
