<?xml version="1.0" encoding="UTF-8"?>
<svg version="1.1" xmlns="http://www.w3.org/2000/svg" width="246" height="125">
<path d="M0 0 C1.91020735 -0.00322425 3.82041447 -0.00658913 5.73062134 -0.01008606 C9.73318043 -0.01605429 13.73571803 -0.01792878 17.73828125 -0.01733398 C21.78162164 -0.01725334 25.82484725 -0.02409826 29.86816406 -0.0378418 C118.28673566 -0.3337383 118.28673566 -0.3337383 153.4765625 16.16796875 C154.19263672 16.49684082 154.90871094 16.82571289 155.64648438 17.16455078 C160.66460962 19.49365484 165.41243299 22.38486948 169.4765625 26.16796875 C169.4765625 26.82796875 169.4765625 27.48796875 169.4765625 28.16796875 C170.1159375 28.43609375 170.7553125 28.70421875 171.4140625 28.98046875 C173.4765625 30.16796875 173.4765625 30.16796875 174.4765625 33.16796875 C175.38535156 33.54501953 175.38535156 33.54501953 176.3125 33.9296875 C179.55221635 35.78346021 180.62276587 38.69896803 182.1015625 41.98046875 C182.40715088 42.65045898 182.71273926 43.32044922 183.02758789 44.01074219 C189.8305751 59.66926235 189.0975892 79.36025557 183.2734375 95.2578125 C182.14242719 97.96891074 180.86882234 100.58234333 179.4765625 103.16796875 C178.8165625 103.16796875 178.1565625 103.16796875 177.4765625 103.16796875 C177.1465625 104.48796875 176.8165625 105.80796875 176.4765625 107.16796875 C175.8165625 107.16796875 175.1565625 107.16796875 174.4765625 107.16796875 C174.1465625 108.15796875 173.8165625 109.14796875 173.4765625 110.16796875 C154.82503433 122.06740149 132.7104007 119.2594162 111.71875 117.65234375 C76.24110982 114.99502034 42.59728212 116.81697473 7.375 122.30078125 C-8.63897683 124.73321855 -28.15164301 127.40697949 -42.5234375 118.16796875 C-43.09449219 117.80445312 -43.66554688 117.4409375 -44.25390625 117.06640625 C-52.30335903 111.19665604 -54.51178687 101.52827399 -56.11499023 92.15551758 C-56.81085695 87.0656664 -57.00240193 81.98664496 -57.1484375 76.85546875 C-57.20318237 75.12840698 -57.20318237 75.12840698 -57.2590332 73.36645508 C-57.51713501 64.36432356 -57.65557436 55.36101717 -57.7109375 46.35546875 C-57.72398926 45.14785889 -57.73704102 43.94024902 -57.75048828 42.69604492 C-57.77517977 17.06803985 -57.77517977 17.06803985 -51.5234375 10.16796875 C-36.28632113 -1.28833848 -18.1503482 0.00727606 0 0 Z " fill="#24B5BB" transform="translate(58.5234375,-0.16796875)"/>
<path d="M0 0 C0.33 0.66 0.66 1.32 1 2 C0.71125 2.825 0.4225 3.65 0.125 4.5 C-2.56547235 12.87035843 -2.12285548 21.81319488 -1.984375 30.515625 C-1.96787903 31.68905457 -1.95138306 32.86248413 -1.93438721 34.07147217 C-1.89708122 36.54232676 -1.85656131 39.0131347 -1.81298828 41.48388672 C-1.75042008 45.22488308 -1.70881143 48.96574292 -1.66796875 52.70703125 C-1.90480479 76.27591076 -1.90480479 76.27591076 8 97 C16.80192692 104.43156704 27.45491367 105.32752317 38.52734375 104.75 C39.43951157 104.70407715 40.35167938 104.6581543 41.29148865 104.61083984 C51.79547241 104.00381094 62.15952918 102.52461188 72.5625 101 C89.43827264 98.56817619 105.86874405 96.79624318 122.9375 96.8125 C123.72378784 96.8117749 124.51007568 96.8110498 125.32019043 96.81030273 C135.83981726 96.81136355 146.25899877 97.15544141 156.75 98 C166.49534442 98.77711015 176.18908428 99.24278534 185.96276855 99.29956055 C187.98990719 99.31205265 190.01694598 99.3383867 192.04394531 99.36523438 C203.73002647 99.35923382 215.00867909 98.09755144 224 90 C234.96038944 78.30401396 234.55072562 61.80355438 234.3359375 46.8203125 C234.15126739 41.6580205 233.30290979 36.99275031 232 32 C232.66 32 233.32 32 234 32 C241.52971092 46.71716226 240.48945004 66.59679831 235.5625 82 C234.29282704 85.46568893 232.75098742 88.74816623 231 92 C230.34 92 229.68 92 229 92 C228.67 93.32 228.34 94.64 228 96 C227.34 96 226.68 96 226 96 C225.67 96.99 225.34 97.98 225 99 C206.34847183 110.89943274 184.2338382 108.09144745 163.2421875 106.484375 C127.76454732 103.82705159 94.12071962 105.64900598 58.8984375 111.1328125 C42.88446067 113.5652498 23.37179449 116.23901074 9 107 C8.42894531 106.63648437 7.85789062 106.27296875 7.26953125 105.8984375 C-0.77992153 100.02868729 -2.98834937 90.36030524 -4.59155273 80.98754883 C-5.28741945 75.89769765 -5.47896443 70.81867621 -5.625 65.6875 C-5.67974487 63.96043823 -5.67974487 63.96043823 -5.7355957 62.19848633 C-5.99369751 53.19635481 -6.13213686 44.19304842 -6.1875 35.1875 C-6.20055176 33.97989014 -6.21360352 32.77228027 -6.22705078 31.52807617 C-6.23712448 21.07229185 -6.21481021 10.30525981 -1 1 C-0.67 0.67 -0.34 0.34 0 0 Z " fill="#080909" transform="translate(7,11)"/>
<path d="M0 0 C4.96323972 4.41176864 8.34037237 8.92008093 9.421875 15.609375 C9.8228852 23.49590898 7.6227478 29.92118181 2.35546875 35.8515625 C-2.50817335 40.30898619 -7.73111313 43.15207894 -14.4375 43.1875 C-16.2009375 43.0946875 -16.2009375 43.0946875 -18 43 C-17.505 42.525625 -17.01 42.05125 -16.5 41.5625 C-14.35281399 37.89439057 -14.21776656 34.16424275 -15 30 C-17.02533501 27.36404159 -18.16980416 26.94134038 -21.4375 25.8125 C-26.08547505 23.44774077 -27.19353815 20.72372944 -29 16 C-24.86454725 16.64942423 -21.41595212 18.00703577 -17.60546875 19.72265625 C-16.40341797 20.26083984 -15.20136719 20.79902344 -13.96289062 21.35351562 C-12.70437666 21.92306568 -11.44591375 22.49272855 -10.1875 23.0625 C-8.90971681 23.63653896 -7.63172403 24.21011161 -6.35351562 24.78320312 C-3.23358473 26.1842287 -0.11587282 27.58997798 3 29 C4.05395764 23.11931638 3.86936246 20.82118688 0.5 15.8125 C-3.04927286 10.49541623 -3.04927286 10.49541623 -2.78515625 7.83984375 C-2.52605469 7.23269531 -2.26695313 6.62554687 -2 6 C-1.4740625 4.39125 -1.4740625 4.39125 -0.9375 2.75 C-0.628125 1.8425 -0.31875 0.935 0 0 Z " fill="#F4FBFB" transform="translate(64,34)"/>
<path d="M0 0 C-0.33 0.99 -0.66 1.98 -1 3 C-1.31135663 8.6256394 -1.31135663 8.6256394 0 14 C2.16210732 14.8508083 2.16210732 14.8508083 4.75 15.25 C8.95430445 16.32972811 10.84182172 17.37453557 13.1875 21.0625 C14.35546875 23.16015625 14.35546875 23.16015625 15 25 C14.67 25.66 14.34 26.32 14 27 C-7.60739583 17.28699135 -7.60739583 17.28699135 -17 13 C-17.93691759 15.74829159 -18.30496429 17.14572483 -18 20 C-16.31305078 23.23472514 -14.42016455 26.213028 -12.37109375 29.23046875 C-11.91863281 30.14441406 -11.46617188 31.05835937 -11 32 C-11.74609375 34.16015625 -11.74609375 34.16015625 -13 36 C-13.38290462 37.99110401 -13.72604615 39.99100513 -14 42 C-18.93777628 37.59603737 -21.5294505 33.70751637 -22.35546875 27.19921875 C-22.69782523 19.91720381 -21.53853134 14.76176271 -17 9 C-12.47526864 4.09910333 -6.89614629 0 0 0 Z " fill="#F3FBFB" transform="translate(46,28)"/>
<path d="M0 0 C1.65 0 3.3 0 5 0 C6.93393388 5.01064686 8.51401513 9.79905294 10 15 C11.32 10.05 12.64 5.1 14 0 C15.98 0 17.96 0 20 0 C20.33808357 3.37454164 20.66961318 6.74969681 21 10.125 C21.09539062 11.07632813 21.19078125 12.02765625 21.2890625 13.0078125 C21.74437277 17.69100382 22.12693246 22.2876326 22 27 C20.02 27 18.04 27 16 27 C16 22.71 16 18.42 16 14 C15.34 14 14.68 14 14 14 C13.87625 15.216875 13.7525 16.43375 13.625 17.6875 C13.21108694 21.06479059 12.45426549 23.89756695 11 27 C10.01 27 9.02 27 8 27 C5.74914435 22.17673789 4.97081043 17.20077015 4 12 C3.67 16.95 3.34 21.9 3 27 C1.35 27 -0.3 27 -2 27 C-1.8612922 23.06221489 -1.71281508 19.12485777 -1.5625 15.1875 C-1.52318359 14.06794922 -1.48386719 12.94839844 -1.44335938 11.79492188 C-1.40146484 10.72177734 -1.35957031 9.64863281 -1.31640625 8.54296875 C-1.27974854 7.55321045 -1.24309082 6.56345215 -1.20532227 5.54370117 C-1 3 -1 3 0 0 Z " fill="#F1FAFA" transform="translate(103,39)"/>
<path d="M0 0 C2.79035429 2.2477854 3.85910005 3.57730016 5 7 C5.39869509 11.95123669 5.49481262 16.56477757 3 21 C-0.10861908 22.55430954 -3.65824747 22.88672245 -7 22 C-10.59908285 17.51134792 -10.56140823 13.37445138 -10.41796875 7.828125 C-10 5 -10 5 -7.8125 1.75 C-4.74440327 -0.15903797 -3.51399818 -0.81092266 0 0 Z " fill="#F5FBFC" transform="translate(210,44)"/>
<path d="M0 0 C3.7 1.4 3.7 1.4 5 4 C5.0980731 6.86431142 5.13902649 9.69875884 5.125 12.5625 C5.12886719 13.35591797 5.13273438 14.14933594 5.13671875 14.96679688 C5.12663067 20.87336933 5.12663067 20.87336933 4 22 C2.2127943 22.15135944 0.41838124 22.22175778 -1.375 22.25 C-2.35210937 22.27578125 -3.32921875 22.3015625 -4.3359375 22.328125 C-7 22 -7 22 -8.82421875 20.66796875 C-10.68137353 18.03340035 -10.4469179 16.1284253 -10 13 C-7.79943285 9.86842368 -6.49841035 9.11501777 -2.75 8.25 C-1.8425 8.1675 -0.935 8.085 0 8 C-0.33 7.34 -0.66 6.68 -1 6 C-3.32156597 5.59270772 -5.6568787 5.25561323 -8 5 C-8 3.68 -8 2.36 -8 1 C-5.2201184 -0.3899408 -3.0813674 -0.18488204 0 0 Z " fill="#F2FAFB" transform="translate(172,44)"/>
<path d="M0 0 C2.23828125 1.44140625 2.23828125 1.44140625 4 4 C4.48297559 7.09937484 4.37703243 10.12304782 4.25 13.25 C4.23195312 14.09046875 4.21390625 14.9309375 4.1953125 15.796875 C4.14830798 17.86507395 4.07656724 19.93268441 4 22 C2.35 22 0.7 22 -1 22 C-1.33 16.39 -1.66 10.78 -2 5 C-3.32 4.67 -4.64 4.34 -6 4 C-6 9.94 -6 15.88 -6 22 C-7.65 22 -9.3 22 -11 22 C-11 15.07 -11 8.14 -11 1 C-7.37296974 -0.20901009 -3.75982637 -0.78660475 0 0 Z " fill="#F9FDFD" transform="translate(192,44)"/>
<path d="M0 0 C3.17060521 0.71810252 4.18688384 1.7807376 6.03515625 4.4609375 C6.51818749 7.56029415 6.41218813 10.58399883 6.28515625 13.7109375 C6.26710937 14.55140625 6.2490625 15.391875 6.23046875 16.2578125 C6.18346423 18.32601145 6.11172349 20.39362191 6.03515625 22.4609375 C4.38515625 22.4609375 2.73515625 22.4609375 1.03515625 22.4609375 C0.70515625 16.8509375 0.37515625 11.2409375 0.03515625 5.4609375 C-1.28484375 5.1309375 -2.60484375 4.8009375 -3.96484375 4.4609375 C-3.96484375 10.4009375 -3.96484375 16.3409375 -3.96484375 22.4609375 C-5.61484375 22.4609375 -7.26484375 22.4609375 -8.96484375 22.4609375 C-9.05169662 19.16943625 -9.1051827 15.8782279 -9.15234375 12.5859375 C-9.17748047 11.64878906 -9.20261719 10.71164063 -9.22851562 9.74609375 C-9.23818359 8.85019531 -9.24785156 7.95429687 -9.2578125 7.03125 C-9.27352295 6.20383301 -9.2892334 5.37641602 -9.30541992 4.52392578 C-9.19302979 3.84313965 -9.08063965 3.16235352 -8.96484375 2.4609375 C-5.75047846 0.31802731 -3.79057766 0.16067959 0 0 Z " fill="#FAFDFD" transform="translate(152.96484375,43.5390625)"/>
<path d="M0 0 C0.33 1.32 0.66 2.64 1 4 C-1 5 -1 5 -5 5 C-4.84192462 7.68728147 -4.52129131 9.47144837 -2.59765625 11.421875 C-2.04980469 11.90140625 -1.50195312 12.3809375 -0.9375 12.875 C1.70758515 15.34205057 1.96961888 15.80421056 2.5625 19.625 C1.9711002 23.17339878 1.49242107 24.48581106 -1 27 C-3.48046875 27.390625 -3.48046875 27.390625 -6.1875 27.25 C-7.08855469 27.21390625 -7.98960937 27.1778125 -8.91796875 27.140625 C-9.60503906 27.09421875 -10.29210937 27.0478125 -11 27 C-11.33 26.34 -11.66 25.68 -12 25 C-11.505 23.515 -11.505 23.515 -11 22 C-9.02 22 -7.04 22 -5 22 C-5.23543236 18.115366 -6.47957921 16.29735731 -9.0625 13.5625 C-11.3070805 11.07453125 -11.9587594 10.21032704 -12.625 6.8125 C-10.99315507 -0.5308022 -6.48497146 -0.43233143 0 0 Z " fill="#F3FBFB" transform="translate(139,39)"/>
<path d="M0 0 C0.78890625 0.06960937 1.5778125 0.13921875 2.390625 0.2109375 C3.18984375 0.26507813 3.9890625 0.31921875 4.8125 0.375 C5.41578125 0.44460937 6.0190625 0.51421875 6.640625 0.5859375 C6.970625 1.5759375 7.300625 2.5659375 7.640625 3.5859375 C5.28109406 5.94546844 3.86166883 6.07735163 0.640625 6.5859375 C-0.28288227 9.35645931 -0.52267085 11.15282508 -0.546875 14.0234375 C-0.56105469 14.78527344 -0.57523437 15.54710937 -0.58984375 16.33203125 C-0.33550166 18.81941065 0.40045304 20.43401856 1.640625 22.5859375 C3.290625 22.5859375 4.940625 22.5859375 6.640625 22.5859375 C7.203125 24.5234375 7.203125 24.5234375 7.640625 26.5859375 C6.07152741 28.15503509 4.50016243 27.90612615 2.328125 28.0234375 C1.54824219 28.08402344 0.76835938 28.14460938 -0.03515625 28.20703125 C-2.359375 27.5859375 -2.359375 27.5859375 -4.62109375 25.02734375 C-6.61893609 21.07206487 -6.89523403 18.4965988 -6.859375 14.0859375 C-6.87484375 12.18328125 -6.87484375 12.18328125 -6.890625 10.2421875 C-6.21701495 5.60616542 -4.95992461 1.23176936 0 0 Z " fill="#F5FBFC" transform="translate(91.359375,38.4140625)"/>
<path d="M0 0 C0.66 0 1.32 0 2 0 C6.59525958 8.98164373 7.33756406 19.04186034 7 29 C5.68 29 4.36 29 3 29 C2.98018066 28.44127197 2.96036133 27.88254395 2.93994141 27.30688477 C2.8434781 24.72502582 2.73430188 22.14384608 2.625 19.5625 C2.5940625 18.68400391 2.563125 17.80550781 2.53125 16.90039062 C2.27193381 11.04416673 1.42355815 5.68844577 0 0 Z " fill="#030303" transform="translate(239,43)"/>
<path d="M0 0 C0.33 0.66 0.66 1.32 1 2 C1.66 2 2.32 2 3 2 C3.66 8.27 4.32 14.54 5 21 C4.34 21 3.68 21 3 21 C3.99 23.31 4.98 25.62 6 28 C5.01 28.33 4.02 28.66 3 29 C0.39176982 21.8708375 -0.15177524 15.06848712 -0.0625 7.5625 C-0.05798828 6.83095703 -0.05347656 6.09941406 -0.04882812 5.34570312 C-0.03718148 3.56376581 -0.01925191 1.78187137 0 0 Z " fill="#101010" transform="translate(2,73)"/>
<path d="M0 0 C2.0625 0.4375 2.0625 0.4375 4 1 C4.02698189 2.62490954 4.04638757 4.24994633 4.0625 5.875 C4.07410156 6.77992187 4.08570313 7.68484375 4.09765625 8.6171875 C4 11 4 11 3 13 C1.68 12.67 0.36 12.34 -1 12 C-1.02687279 10.18757948 -1.04633715 8.37504767 -1.0625 6.5625 C-1.07410156 5.55316406 -1.08570313 4.54382812 -1.09765625 3.50390625 C-1 1 -1 1 0 0 Z " fill="#31BAC0" transform="translate(206,49)"/>
<path d="M0 0 C0.66 0.33 1.32 0.66 2 1 C2 3.97 2 6.94 2 10 C0.68 10 -0.64 10 -2 10 C-2.1953125 3.9453125 -2.1953125 3.9453125 -2 2 C-1.34 1.34 -0.68 0.68 0 0 Z " fill="#1C1C1C" transform="translate(244,62)"/>
<path d="M0 0 C0 2.64 0 5.28 0 8 C-1.32 7.67 -2.64 7.34 -4 7 C-4.6875 5.1875 -4.6875 5.1875 -5 3 C-3.38441968 0.84589291 -2.74502455 0 0 0 Z " fill="#37BCC2" transform="translate(172,55)"/>
<path d="M0 0 C0.33 0.66 0.66 1.32 1 2 C1.66 2 2.32 2 3 2 C3.29296875 8.0546875 3.29296875 8.0546875 3 10 C2.01 10.66 1.02 11.32 0 12 C0 8.04 0 4.08 0 0 Z " fill="#1A1A1A" transform="translate(2,73)"/>
<path d="M0 0 C1 2 1 2 0.44140625 4.1640625 C0.15136719 4.97617188 -0.13867188 5.78828125 -0.4375 6.625 C-0.72496094 7.44226563 -1.01242188 8.25953125 -1.30859375 9.1015625 C-1.53675781 9.72804688 -1.76492188 10.35453125 -2 11 C-2.66 10.67 -3.32 10.34 -4 10 C-3.43454163 6.04179141 -2.19097652 3.3340947 0 0 Z " fill="#0D0D0D" transform="translate(7,11)"/>
<path d="M0 0 C0.66 0 1.32 0 2 0 C2.99 2.64 3.98 5.28 5 8 C4.01 8 3.02 8 2 8 C0.74335022 5.09399739 0 3.20395416 0 0 Z " fill="#2B3839" transform="translate(239,43)"/>
</svg>
